PathFileType	4	(X/Y/Z)
DataRate	CameraRate	NumFrames	NumMarkers	Units	OrigDataRate	OrigDataStartFrame	OrigNumFrames
120	120	4	142	mm	120	296	473	
Frame#	Time	 STRN			 T1			 T8			 T10			 T12			 C7			 CLAV			 LANK			 RANK			 LANI			 RANI			 LASI			 RASI			 LPSI			 RPSI			 LSHO			 RSHO			 LTOE			 RTOE			 RHEE			 LHEE			 LKNE			 RKNE			 LKNI			 RKNI			 RIWR			 LIWR			 RELB			 LELB			 RELBIN			 LELBIN			 LOWR			 ROWR			 RCLAV			 LCLAV			 RFHD			 LBHD			 LFHD			 RBHD			 LMT1			 LMT5			 RMT1			 RMT5			 Tracking_L5			 Tracking_L4			 Tracking_L3			 Tracking_L2			 Tracking_L1			 Tracking_T11			 Tracking_T9			 Tracking_T7			 Tracking_T6			 Tracking_T5			 Tracking_T4			 Tracking_T3			 Tracking_T2			 rthumb			 rindex			 rmiddle			 rring			 rpinky			 lthumb			 lindex			 lmiddle			 lring			 lpinky			 ROOT			 Spine1			 Spine2			 Spine3			 LHIPJ			 RHIPJ			 LKJC			 RKJC			 LAJC			 RAJC			 LFOOT			 RFOOT			 NECK			 LCOL			 RCOL			 HEAD			 LSHOULDER			 RSHOULDER			 LELC			 RELC			 LWRIST			 RWRIST			 left_index1			 left_index2			 left_index3			 left_middle1			 left_middle2			 left_middle3			 left_pinky1			 left_pinky2			 left_pinky3			 left_ring1			 left_ring2			 left_ring3			 left_thumb1			 left_thumb2			 left_thumb3			 right_index1			 right_index2			 right_index3			 right_middle1			 right_middle2			 right_middle3			 right_pinky1			 right_pinky2			 right_pinky3			 right_ring1			 right_ring2			 right_ring3			 right_thumb1			 right_thumb2			 right_thumb3			 MASI			 MPSI			 MHIPJ			 CENTER			 Virtual_LWRIST			 Virtual_RWRIST			 Virtual_LAJC			 Virtual_RAJC			 Virtual_LKJC			 Virtual_RKJC			 Virtual_LELC			 Virtual_RELC			 Virtual_Ground_RAJC			 Virtual_Ground_LAJC			 Virtual_Ground_RFOOT			 Virtual_Ground_LFOOT			 Virtual_Ground_RTOE			 Virtual_Ground_LTOE			 Virtual_Ground_RMT1			 Virtual_Ground_LMT1			 Virtual_Ground_RMT5			 Virtual_Ground_LMT5			 Virtual_Ground_RHEE			 Virtual_Ground_LHEE		
		X1	Y1	Z1	X2	Y2	Z2	X3	Y3	Z3	X4	Y4	Z4	X5	Y5	Z5	X6	Y6	Z6	X7	Y7	Z7	X8	Y8	Z8	X9	Y9	Z9	X10	Y10	Z10	X11	Y11	Z11	X12	Y12	Z12	X13	Y13	Z13	X14	Y14	Z14	X15	Y15	Z15	X16	Y16	Z16	X17	Y17	Z17	X18	Y18	Z18	X19	Y19	Z19	X20	Y20	Z20	X21	Y21	Z21	X22	Y22	Z22	X23	Y23	Z23	X24	Y24	Z24	X25	Y25	Z25	X26	Y26	Z26	X27	Y27	Z27	X28	Y28	Z28	X29	Y29	Z29	X30	Y30	Z30	X31	Y31	Z31	X32	Y32	Z32	X33	Y33	Z33	X34	Y34	Z34	X35	Y35	Z35	X36	Y36	Z36	X37	Y37	Z37	X38	Y38	Z38	X39	Y39	Z39	X40	Y40	Z40	X41	Y41	Z41	X42	Y42	Z42	X43	Y43	Z43	X44	Y44	Z44	X45	Y45	Z45	X46	Y46	Z46	X47	Y47	Z47	X48	Y48	Z48	X49	Y49	Z49	X50	Y50	Z50	X51	Y51	Z51	X52	Y52	Z52	X53	Y53	Z53	X54	Y54	Z54	X55	Y55	Z55	X56	Y56	Z56	X57	Y57	Z57	X58	Y58	Z58	X59	Y59	Z59	X60	Y60	Z60	X61	Y61	Z61	X62	Y62	Z62	X63	Y63	Z63	X64	Y64	Z64	X65	Y65	Z65	X66	Y66	Z66	X67	Y67	Z67	X68	Y68	Z68	X69	Y69	Z69	X70	Y70	Z70	X71	Y71	Z71	X72	Y72	Z72	X73	Y73	Z73	X74	Y74	Z74	X75	Y75	Z75	X76	Y76	Z76	X77	Y77	Z77	X78	Y78	Z78	X79	Y79	Z79	X80	Y80	Z80	X81	Y81	Z81	X82	Y82	Z82	X83	Y83	Z83	X84	Y84	Z84	X85	Y85	Z85	X86	Y86	Z86	X87	Y87	Z87	X88	Y88	Z88	X89	Y89	Z89	X90	Y90	Z90	X91	Y91	Z91	X92	Y92	Z92	X93	Y93	Z93	X94	Y94	Z94	X95	Y95	Z95	X96	Y96	Z96	X97	Y97	Z97	X98	Y98	Z98	X99	Y99	Z99	X100	Y100	Z100	X101	Y101	Z101	X102	Y102	Z102	X103	Y103	Z103	X104	Y104	Z104	X105	Y105	Z105	X106	Y106	Z106	X107	Y107	Z107	X108	Y108	Z108	X109	Y109	Z109	X110	Y110	Z110	X111	Y111	Z111	X112	Y112	Z112	X113	Y113	Z113	X114	Y114	Z114	X115	Y115	Z115	X116	Y116	Z116	X117	Y117	Z117	X118	Y118	Z118	X119	Y119	Z119	X120	Y120	Z120	X121	Y121	Z121	X122	Y122	Z122	X123	Y123	Z123	X124	Y124	Z124	X125	Y125	Z125	X126	Y126	Z126	X127	Y127	Z127	X128	Y128	Z128	X129	Y129	Z129	X130	Y130	Z130	X131	Y131	Z131	X132	Y132	Z132	X133	Y133	Z133	X134	Y134	Z134	X135	Y135	Z135	X136	Y136	Z136	X137	Y137	Z137	X138	Y138	Z138	X139	Y139	Z139	X140	Y140	Z140	X141	Y141	Z141	X142	Y142	Z142

296	2.4583	345.322639	-505.348444	1086.298466	347.283870	-281.782269	1337.123632	338.744581	-223.637849	1146.470904	335.839540	-228.381440	1093.397498	332.501411	-240.517139	1039.579868	349.777371	-301.703185	1360.015869	347.547561	-437.088609	1276.709199	635.132194	-288.530529	63.608631	53.597216	-320.664704	59.841499	570.954978	-291.913807	73.834702	119.142205	-322.464705	72.418854	463.678539	-448.329717	820.708156	197.167471	-454.763532	816.567719	389.229983	-223.288566	865.116894	268.848151	-228.441238	866.034269	444.756150	-331.089675	1332.329512	246.424258	-334.599018	1335.531950	623.403907	-462.187231	-5.625860	73.632091	-501.814783	0.929459	89.048892	-258.635402	-2.151148	602.951765	-220.378697	4.037484	617.991269	-508.805275	424.832731	77.674180	-551.485837	414.475232	513.453245	-520.270884	392.633677	189.372063	-552.990973	387.483209	17.354462	-602.860034	1612.596273	686.607003	-553.739309	1607.522488	-56.973573	-446.643740	1417.409778	751.843095	-400.627524	1413.179874	-60.461637	-524.792671	1365.209460	771.842480	-475.165248	1360.088348	739.489675	-546.184838	1627.806664	-41.859712	-600.424469	1626.278162	282.102674	-407.856584	1301.433921	412.610471	-406.111777	1299.147725	292.953968	-492.529511	1530.050516	414.960176	-391.318291	1585.526228	393.065482	-509.507239	1526.893020	315.587699	-374.678135	1588.219643	619.115710	-409.439683	15.094145	685.761571	-378.308833	4.347785	76.783091	-449.848175	18.614693	1.505021	-421.105444	5.571469	328.130633	-240.649447	905.613959	328.390360	-247.635886	932.287276	329.531550	-251.734138	962.843239	329.603046	-251.105994	988.928854	330.855489	-246.419474	1014.246702	334.343284	-234.430879	1065.893650	337.402731	-225.258157	1120.905757	340.010285	-223.756224	1167.958856	341.251910	-228.123337	1205.359221	343.179822	-235.054255	1235.125661	344.343990	-245.811716	1273.510575	344.837308	-254.666269	1296.146989	345.684737	-266.155571	1315.490603	62.272433	-684.729695	1723.336220	48.554722	-672.115207	1764.209628	23.256723	-669.598818	1773.989916	3.812138	-667.946815	1761.422396	-23.406323	-659.405529	1751.059532	625.229239	-625.141025	1709.817648	631.417811	-619.689047	1745.141029	651.034474	-617.108464	1760.417938	672.187209	-612.684727	1750.348449	700.365484	-600.349367	1746.833801	330.871880	-374.882966	816.171229	333.227962	-319.257677	936.398566	344.258577	-357.613027	1064.626694	343.551934	-362.977207	1117.619634	391.205549	-364.462525	732.533634	267.138749	-377.458394	725.154638	567.455351	-506.271601	424.123973	128.218770	-544.790864	411.626458	596.931398	-296.146423	55.214629	95.482096	-328.716248	55.309936	661.353588	-401.359349	-12.398080	31.690363	-446.364522	-5.706684	341.041565	-353.685290	1328.814626	421.090871	-355.359495	1230.772138	266.143888	-353.422552	1236.575365	348.222584	-412.977219	1402.274370	537.119865	-335.681587	1296.934724	161.316961	-353.343785	1304.468155	757.318020	-438.790649	1382.231116	-52.756902	-485.452950	1386.184573	720.045567	-556.928754	1619.487047	-18.235501	-611.819446	1622.241974	642.305970	-565.781474	1694.383025	625.187576	-574.900925	1721.270204	628.083587	-594.493389	1733.553171	655.121803	-553.514063	1712.727070	645.721614	-564.543784	1741.249681	649.050415	-586.163998	1752.701640	704.532683	-547.113061	1716.899991	702.770174	-557.553172	1734.359741	703.160644	-575.574994	1742.513657	681.628406	-547.762990	1716.809034	671.059430	-561.341941	1740.924358	672.550321	-584.193349	1749.848127	678.241372	-585.077465	1644.009829	657.751441	-603.373647	1660.142183	638.169706	-609.132290	1678.266048	45.077328	-617.144287	1709.707141	55.954013	-624.993682	1740.907073	51.293019	-644.755244	1752.721906	26.524846	-605.622113	1726.034045	30.246202	-616.170287	1756.198049	26.007388	-638.075352	1766.461253	-24.020072	-604.529977	1720.694542	-25.801625	-615.841448	1737.568021	-26.728865	-634.132087	1744.842649	-1.582261	-602.303147	1725.199580	3.823791	-615.001619	1751.429915	1.439575	-638.212740	1759.610176	21.626029	-638.251603	1650.918961	38.316522	-657.716036	1670.738101	53.151134	-664.925277	1693.175554	330.423005	-451.546624	818.637937	329.039067	-225.864902	865.575582	329.172149	-370.960459	728.844136	329.731036	-338.705763	842.106760	713.048339	-549.962074	1617.664576	-12.252625	-601.642251	1619.437218	603.043586	-290.222168	68.721667	86.369710	-321.564704	66.130176	565.722257	-514.538080	408.733204	133.523121	-552.238405	400.979221	761.842787	-437.896386	1386.634111	-58.717605	-485.718206	1391.309619	86.369710	-711.902976	66.130176	603.043586	-711.902976	68.721667	31.690363	-711.902976	-5.706684	661.353588	-711.902976	-12.398080	73.632091	-711.902976	0.929459	623.403907	-711.902976	-5.625860	76.783091	-711.902976	18.614693	619.115710	-711.902976	15.094145	1.505021	-711.902976	5.571469	685.761571	-711.902976	4.347785	89.048892	-711.902976	-2.151148	602.951765	-711.902976	4.037484
297	2.4667	344.621569	-505.727470	1091.135621	347.047508	-281.765521	1341.796875	338.472903	-223.921984	1150.797129	335.573852	-228.825331	1097.822785	332.261682	-241.050243	1044.161320	349.515170	-301.760077	1364.854693	347.085297	-437.122494	1281.340599	635.568261	-289.104909	63.995518	53.444367	-320.765108	59.789997	571.303487	-292.488545	74.314632	118.999526	-322.643816	72.546996	463.273376	-447.955966	824.319780	197.022229	-454.497069	820.426404	388.896108	-223.314643	870.040715	268.577218	-228.536427	871.030569	444.579601	-331.283987	1336.759448	246.085644	-334.566027	1340.142488	623.720169	-462.415904	-6.194850	73.421851	-501.953185	0.602225	89.395031	-258.890867	-2.088388	603.026807	-220.862731	4.757682	616.692722	-505.688846	427.468807	77.010199	-547.461629	417.139351	512.154877	-517.101347	395.151883	188.698038	-549.282014	390.142947	11.529280	-604.780972	1616.946578	691.111207	-554.021657	1609.186411	-57.936389	-446.263820	1421.586871	753.266633	-400.048941	1414.548278	-61.508376	-524.094582	1368.988633	772.822201	-474.311143	1360.901952	744.275630	-546.506107	1628.793240	-47.911394	-601.876616	1629.614234	281.695515	-407.891244	1306.077003	412.287205	-406.278759	1303.636193	292.655915	-494.938195	1532.854557	414.412469	-394.515157	1590.165734	392.779648	-511.724830	1529.571176	314.968586	-378.045410	1593.048334	619.533837	-409.842134	14.880577	686.111748	-378.635287	4.082600	76.502964	-450.040966	18.553654	1.301868	-421.200365	5.343119	327.901155	-240.879089	910.444319	328.174680	-247.963667	937.047303	329.322278	-252.171636	967.544794	329.376101	-251.603872	993.596613	330.627620	-246.947199	1018.878460	334.092289	-234.943762	1070.399880	337.130070	-225.619048	1125.273108	339.730740	-223.977983	1172.279477	340.972275	-228.255317	1209.702492	342.903942	-235.108867	1239.522099	344.084054	-245.781481	1277.994394	344.594598	-254.629344	1300.706387	345.451236	-266.119838	1320.087433	53.531270	-688.555241	1727.438092	39.135020	-676.438987	1768.215537	13.743980	-673.806965	1777.511716	-5.396115	-671.762466	1764.604807	-32.308031	-662.792087	1753.904343	631.263137	-626.152992	1711.855412	637.990534	-620.916307	1747.155905	657.765806	-618.423402	1762.109280	678.705633	-613.908410	1751.818657	706.717730	-601.502180	1748.035431	330.592155	-374.569714	820.377350	333.022147	-319.555968	940.884292	343.765855	-358.060777	1069.091916	343.062818	-363.290161	1122.098446	390.851885	-363.695890	736.744165	266.784966	-376.711309	729.401410	566.154122	-503.141344	426.720887	127.559587	-540.876865	414.338291	597.361207	-296.837747	55.802505	95.341727	-328.952223	55.491131	661.686480	-401.506394	-12.740871	31.538617	-446.388781	-5.920133	340.706646	-353.617489	1333.278060	420.686781	-355.541885	1235.183716	265.745670	-353.450298	1241.090059	347.969949	-413.212210	1406.484246	536.995769	-335.606277	1300.774932	160.841972	-353.272289	1308.863997	758.487344	-438.111484	1383.408904	-53.638238	-484.889358	1390.308619	724.700034	-557.217717	1620.702624	-24.316387	-613.491833	1625.860929	648.005068	-566.713750	1696.590304	631.270766	-576.044679	1723.646164	634.367406	-595.714211	1735.755801	661.049306	-554.547250	1714.840412	652.058005	-565.785587	1743.413329	655.579507	-587.476492	1754.672408	710.501611	-548.086166	1718.382239	708.995283	-558.646739	1735.793471	709.527552	-576.722383	1743.819237	687.599301	-548.776388	1718.599319	677.383602	-562.536359	1742.764235	679.034889	-585.444629	1751.512170	683.282316	-585.605681	1645.602465	663.045526	-604.046702	1661.888719	643.722832	-609.962344	1680.238605	37.300568	-620.681643	1714.397311	47.514003	-629.072487	1745.680451	42.431843	-648.944438	1757.130980	18.566621	-609.190524	1730.537772	21.617962	-620.190382	1760.615587	16.964776	-642.188549	1770.492792	-31.856377	-607.494473	1724.282026	-34.067262	-619.017243	1740.960479	-35.316993	-637.395322	1747.961402	-9.484636	-605.565488	1729.230881	-4.697846	-618.678987	1755.377173	-7.471459	-641.973972	1763.188124	14.731927	-640.732348	1654.898047	30.850573	-660.641253	1674.749136	45.190614	-668.313265	1697.353959	330.147803	-451.226518	822.373092	328.736663	-225.925535	870.535642	328.818426	-370.203599	733.072788	329.442233	-338.576026	846.454367	717.693418	-550.263882	1618.989825	-18.191057	-603.328794	1623.280406	603.435874	-290.796727	69.155075	86.221946	-321.704462	66.168496	564.423800	-511.395097	411.310345	132.854119	-548.371822	403.641149	763.044417	-437.180042	1387.725115	-59.722383	-485.179201	1395.287752	86.221946	-711.902976	66.168496	603.435874	-711.902976	69.155075	31.538617	-711.902976	-5.920133	661.686480	-711.902976	-12.740871	73.421851	-711.902976	0.602225	623.720169	-711.902976	-6.194850	76.502964	-711.902976	18.553654	619.533837	-711.902976	14.880577	1.301868	-711.902976	5.343119	686.111748	-711.902976	4.082600	89.395031	-711.902976	-2.088388	603.026807	-711.902976	4.757682
298	2.4750	343.969285	-506.004155	1096.922398	346.870989	-281.760335	1347.491741	338.125408	-224.115044	1156.098247	335.216224	-229.173198	1103.201985	331.917673	-241.508693	1049.672365	349.352181	-301.865339	1370.718598	346.710324	-437.135965	1286.904812	635.970533	-289.593428	64.533010	53.207010	-320.822030	59.805170	571.613908	-293.048441	74.954405	118.770957	-322.815001	72.759882	462.874711	-447.589904	828.814507	196.934044	-454.373062	825.129330	388.432056	-223.385319	875.892699	268.199742	-228.770405	876.941383	444.513142	-331.376731	1342.093229	245.755374	-334.568083	1345.725775	624.072731	-462.555617	-6.737099	73.154211	-502.012074	0.142827	89.755669	-259.095162	-1.895234	602.949500	-221.319214	5.660787	615.269363	-501.665533	430.673540	76.365978	-542.525470	420.307785	510.746062	-513.121009	398.208916	188.036382	-544.786870	393.264443	4.587889	-606.418610	1621.943235	696.714401	-554.080009	1611.261606	-59.162349	-445.740104	1426.200747	754.987776	-399.273813	1416.145802	-62.771797	-523.273945	1373.210073	773.935616	-473.277301	1361.894846	750.239074	-546.642721	1629.979491	-55.092156	-602.932811	1633.396983	281.344950	-407.940716	1311.669946	412.059039	-406.408161	1309.046030	292.354167	-497.657895	1536.307931	413.953424	-398.298591	1595.639348	392.472029	-514.339209	1532.862902	314.455897	-381.906033	1598.755121	619.998395	-410.181105	14.770105	686.487377	-378.859162	3.909125	76.134115	-450.180262	18.449262	1.036942	-421.222478	5.029216	327.552527	-241.176397	916.179419	327.844232	-248.331964	942.706287	329.004735	-252.621353	973.140240	329.043657	-252.084225	999.167383	330.296487	-247.429967	1024.419904	333.742678	-235.366315	1075.847387	336.773247	-225.883096	1130.606055	339.380771	-224.114254	1177.582741	340.637296	-228.313044	1215.037823	342.591852	-235.099509	1244.918108	343.818784	-245.711923	1283.484697	344.367176	-254.568666	1306.276321	345.249504	-266.072780	1325.699925	43.140382	-692.082345	1732.286215	27.925998	-680.413902	1772.894979	2.438873	-677.614331	1781.609297	-16.328037	-675.150990	1768.310905	-42.867512	-665.714562	1757.200122	638.739109	-626.947045	1714.454651	646.161437	-621.945798	1749.713659	666.150808	-619.569123	1764.255881	686.832905	-614.981592	1753.678322	714.651406	-602.532983	1749.523282	330.302149	-374.290168	825.501382	332.750559	-319.889218	946.285844	343.251228	-358.401448	1074.511409	342.579752	-363.519132	1127.529144	390.495658	-362.924010	741.886020	266.438246	-376.037359	734.556854	564.757168	-499.165982	429.858178	126.906738	-536.114872	417.531669	597.754955	-297.499090	56.552425	95.131412	-329.166889	55.752411	662.032604	-401.534677	-12.992129	31.358600	-446.325511	-6.218657	340.430409	-353.553653	1338.697433	420.315534	-355.648339	1240.529180	265.381128	-353.481293	1246.581197	347.794026	-413.572371	1411.546350	536.971211	-335.288912	1305.370331	160.337314	-353.178680	1314.137340	759.877205	-437.255532	1384.805322	-54.760784	-484.215170	1394.885540	730.485141	-557.303786	1622.209430	-31.530708	-614.811242	1630.020261	655.151784	-567.433357	1699.368477	638.904393	-576.982915	1726.643920	642.225564	-596.742809	1738.545179	668.510854	-555.398703	1717.477560	660.033166	-566.862106	1746.118069	663.765073	-588.636458	1757.145882	718.014717	-548.932016	1720.192552	716.822684	-559.626997	1737.545967	717.506647	-577.763319	1745.421886	695.120215	-549.639165	1720.809937	685.341537	-563.591063	1745.045424	687.159717	-586.564720	1753.586411	689.530134	-585.909724	1647.619963	669.594824	-604.488730	1664.119840	650.603414	-610.557914	1682.762980	28.023899	-623.928785	1719.781876	37.442982	-632.859528	1751.164675	31.873912	-652.819276	1762.229562	9.074956	-612.427473	1735.662103	11.329979	-623.863816	1765.647173	6.199360	-645.933628	1775.119662	-41.173726	-610.036194	1728.324533	-43.889195	-621.752739	1744.792223	-45.510948	-640.206039	1751.513362	-18.895626	-608.445048	1733.789206	-14.843792	-621.963263	1759.853482	-18.065095	-645.324945	1767.284036	6.540656	-642.908633	1659.534335	21.979511	-663.274765	1679.461718	35.724312	-671.421111	1702.269435	329.904377	-450.981483	826.971918	328.315899	-226.077862	876.417041	328.466952	-369.480684	738.221437	329.110138	-338.529672	851.694480	723.476738	-550.361365	1620.620549	-25.252134	-604.675710	1627.670109	603.792220	-291.320935	69.743708	85.988984	-321.818516	66.282526	563.007712	-507.393271	414.441228	132.201180	-543.656170	406.786114	764.461696	-436.275557	1389.020324	-60.967073	-484.507024	1399.705410	85.988984	-711.902976	66.282526	603.792220	-711.902976	69.743708	31.358600	-711.902976	-6.218657	662.032604	-711.902976	-12.992129	73.154211	-711.902976	0.142827	624.072731	-711.902976	-6.737099	76.134115	-711.902976	18.449262	619.998395	-711.902976	14.770105	1.036942	-711.902976	5.029216	686.487377	-711.902976	3.909125	89.755669	-711.902976	-1.895234	602.949500	-711.902976	5.660787
299	2.4833	343.214869	-506.159306	1103.671551	346.682847	-281.736076	1354.222298	337.597549	-224.216402	1162.383795	334.664732	-229.431242	1109.541893	331.382185	-241.904929	1056.118965	349.209636	-301.990241	1377.625346	346.346915	-437.095821	1293.409944	636.312902	-289.964497	65.296710	52.820969	-320.888877	59.950713	571.857631	-293.505490	75.832009	118.395604	-322.968423	73.109508	462.433547	-447.258592	834.189415	196.866170	-454.303086	830.558538	387.852907	-223.521128	882.711709	267.726123	-229.109019	883.747756	444.491953	-331.340551	1348.310828	245.362267	-334.602237	1352.342010	624.310613	-462.579101	-7.194756	72.850339	-501.990914	-0.472663	89.993723	-259.241700	-1.494525	602.771044	-221.677840	6.836416	613.572776	-496.788412	434.414208	75.878404	-536.765993	423.940152	509.064674	-508.286238	401.803583	187.522367	-539.484560	396.852791	-3.337424	-607.844412	1627.451420	703.224182	-554.071009	1613.700390	-60.804408	-444.975525	1431.384206	756.895900	-398.284763	1418.036938	-64.397939	-522.170007	1377.952695	775.090575	-472.022533	1363.127708	757.170260	-546.682000	1631.307364	-63.251056	-603.754044	1637.537003	280.980527	-407.980889	1318.243861	411.858618	-406.460583	1315.370917	292.019308	-500.753880	1540.328383	413.452327	-402.669251	1601.977825	392.134786	-517.317235	1536.728024	313.898951	-386.351287	1605.318308	620.358944	-410.421848	14.815571	686.759770	-378.981769	3.908040	75.682096	-450.274199	18.297913	0.685592	-421.217799	4.701020	327.070802	-241.543502	922.824383	327.367693	-248.752713	949.267805	328.530669	-253.102690	979.632437	328.543931	-252.565384	1005.643845	329.790205	-247.882679	1030.874491	333.198637	-235.708460	1082.242727	336.228639	-226.053357	1136.912704	338.858247	-224.163353	1183.879614	340.155363	-228.292122	1221.378922	342.158437	-235.016599	1251.328707	343.470424	-245.584995	1290.000677	344.080031	-254.464030	1312.877774	345.008105	-265.989512	1332.344532	31.382579	-695.628345	1737.465501	15.222479	-684.484422	1777.857780	-10.357421	-681.516767	1785.919189	-28.692942	-678.592384	1772.198558	-54.801386	-668.651998	1760.646462	647.665501	-627.771676	1717.627525	655.964732	-623.029530	1752.795935	676.217675	-620.756269	1766.816139	696.570694	-616.075575	1755.871058	724.139214	-603.557646	1751.227856	329.977721	-374.015003	831.522405	332.347274	-320.263028	952.598631	342.592895	-358.622551	1080.890536	341.978639	-363.647908	1133.917928	390.160322	-362.117827	747.973084	266.120911	-375.356913	740.566015	563.121617	-494.365335	433.512747	126.411140	-530.553460	421.200871	598.071992	-298.063189	57.534698	94.778799	-329.383373	56.164805	662.256062	-401.430339	-13.084648	31.100679	-446.186572	-6.569861	340.150118	-353.461087	1345.078588	419.885904	-355.655998	1246.791244	264.960796	-353.487849	1253.076553	347.660452	-414.019942	1417.464018	536.977589	-334.750384	1310.665369	159.730211	-353.094131	1320.340991	761.379480	-436.184764	1386.487722	-56.276601	-483.284712	1400.024652	737.207651	-557.303786	1623.937011	-39.727192	-615.903676	1634.591579	663.640380	-568.179071	1702.682257	648.021817	-577.977598	1730.235338	651.633441	-597.831130	1741.893649	677.388728	-556.276798	1720.586300	669.570923	-567.989707	1749.313474	673.575997	-589.849770	1760.072589	726.933300	-549.764156	1722.241998	726.144612	-560.604692	1739.527941	727.027297	-578.804910	1747.234941	704.059362	-550.508261	1723.367810	694.844782	-564.674735	1747.699738	696.882129	-587.716043	1756.005645	696.868718	-586.176813	1650.021911	677.331805	-604.920030	1666.810036	658.771694	-611.170352	1685.824037	17.440815	-627.190471	1725.648999	25.959361	-636.733770	1757.108688	19.869644	-656.793237	1767.709136	-1.757663	-615.701497	1741.235614	-0.396143	-627.636969	1771.079779	-6.033550	-649.786592	1780.065536	-51.773351	-612.557530	1732.689500	-55.044781	-624.496937	1748.893976	-57.061266	-643.031836	1755.275130	-29.621433	-611.335576	1738.731623	-26.391041	-625.313461	1764.667869	-30.084562	-648.746669	1771.639347	-2.756219	-644.943774	1664.588094	11.926521	-665.815890	1684.563279	24.993796	-674.494624	1707.571983	329.649858	-450.780839	832.373977	327.789515	-226.315074	883.229733	328.140616	-368.737370	744.269550	328.719687	-338.547956	857.801855	730.197221	-550.376505	1622.503877	-33.294240	-605.799228	1632.494211	604.085267	-291.734993	70.564359	85.608287	-321.928650	66.530110	561.318725	-502.537325	418.108895	131.700385	-538.125277	410.396472	765.993237	-435.153648	1390.582323	-62.601173	-483.572766	1404.668450	85.608287	-711.902976	66.530110	604.085267	-711.902976	70.564359	31.100679	-711.902976	-6.569861	662.256062	-711.902976	-13.084648	72.850339	-711.902976	-0.472663	624.310613	-711.902976	-7.194756	75.682096	-711.902976	18.297913	620.358944	-711.902976	14.815571	0.685592	-711.902976	4.701020	686.759770	-711.902976	3.908040	89.993723	-711.902976	-1.494525	602.771044	-711.902976	6.836416
